<svg xmlns="http://www.w3.org/2000/svg" viewBox="0 0 260 261" width="260" height="261">
	<style>
		tspan { white-space:pre }
		.shp0 { fill: #2f80ed } 
	</style>
	<g id="About_us">
		<g id="image_section">
			<path id="Shape 5" class="shp0" d="M259 3.49C259 4.32 258.33 4.99 257.5 4.99C256.67 4.99 256 4.32 256 3.49C256 2.66 256.67 1.99 257.5 1.99C258.33 1.99 259 2.66 259 3.49ZM230.67 3.49C230.67 4.32 229.99 4.99 229.17 4.99C228.34 4.99 227.67 4.32 227.67 3.49C227.67 2.66 228.34 1.99 229.17 1.99C229.99 1.99 230.67 2.66 230.67 3.49ZM202.33 3.49C202.33 4.32 201.66 4.99 200.83 4.99C200 4.99 199.33 4.32 199.33 3.49C199.33 2.66 200 1.99 200.83 1.99C201.66 1.99 202.33 2.66 202.33 3.49ZM174 3.49C174 4.32 173.33 4.99 172.5 4.99C171.67 4.99 171 4.32 171 3.49C171 2.66 171.67 1.99 172.5 1.99C173.33 1.99 174 2.66 174 3.49ZM145.67 3.49C145.67 4.32 145 4.99 144.17 4.99C143.34 4.99 142.67 4.32 142.67 3.49C142.67 2.66 143.34 1.99 144.17 1.99C145 1.99 145.67 2.66 145.67 3.49ZM117.33 3.49C117.33 4.32 116.66 4.99 115.83 4.99C115 4.99 114.33 4.32 114.33 3.49C114.33 2.66 115 1.99 115.83 1.99C116.66 1.99 117.33 2.66 117.33 3.49ZM89 3.49C89 4.32 88.33 4.99 87.5 4.99C86.67 4.99 86 4.32 86 3.49C86 2.66 86.67 1.99 87.5 1.99C88.33 1.99 89 2.66 89 3.49ZM60.67 3.49C60.67 4.32 60 4.99 59.17 4.99C58.34 4.99 57.67 4.32 57.67 3.49C57.67 2.66 58.34 1.99 59.17 1.99C60 1.99 60.67 2.66 60.67 3.49ZM32.33 3.49C32.33 4.32 31.66 4.99 30.83 4.99C30.01 4.99 29.33 4.32 29.33 3.49C29.33 2.66 30.01 1.99 30.83 1.99C31.66 1.99 32.33 2.66 32.33 3.49ZM4 3.49C4 4.32 3.33 4.99 2.5 4.99C1.67 4.99 1 4.32 1 3.49C1 2.66 1.67 1.99 2.5 1.99C3.33 1.99 4 2.66 4 3.49ZM259 31.83C259 32.65 258.33 33.32 257.5 33.32C256.67 33.32 256 32.65 256 31.83C256 31 256.67 30.33 257.5 30.33C258.33 30.33 259 31 259 31.83ZM230.67 31.83C230.67 32.65 229.99 33.32 229.17 33.32C228.34 33.32 227.67 32.65 227.67 31.83C227.67 31 228.34 30.33 229.17 30.33C229.99 30.33 230.67 31 230.67 31.83ZM202.33 31.83C202.33 32.65 201.66 33.32 200.83 33.32C200 33.32 199.33 32.65 199.33 31.83C199.33 31 200 30.33 200.83 30.33C201.66 30.33 202.33 31 202.33 31.83ZM174 31.83C174 32.65 173.33 33.32 172.5 33.32C171.67 33.32 171 32.65 171 31.83C171 31 171.67 30.33 172.5 30.33C173.33 30.33 174 31 174 31.83ZM145.67 31.83C145.67 32.65 145 33.32 144.17 33.32C143.34 33.32 142.67 32.65 142.67 31.83C142.67 31 143.34 30.33 144.17 30.33C145 30.33 145.67 31 145.67 31.83ZM117.33 31.83C117.33 32.65 116.66 33.32 115.83 33.32C115 33.32 114.33 32.65 114.33 31.83C114.33 31 115 30.33 115.83 30.33C116.66 30.33 117.33 31 117.33 31.83ZM89 31.83C89 32.65 88.33 33.32 87.5 33.32C86.67 33.32 86 32.65 86 31.83C86 31 86.67 30.33 87.5 30.33C88.33 30.33 89 31 89 31.83ZM60.67 31.83C60.67 32.65 60 33.32 59.17 33.32C58.34 33.32 57.67 32.65 57.67 31.83C57.67 31 58.34 30.33 59.17 30.33C60 30.33 60.67 31 60.67 31.83ZM32.33 31.83C32.33 32.65 31.66 33.32 30.83 33.32C30.01 33.32 29.33 32.65 29.33 31.83C29.33 31 30.01 30.33 30.83 30.33C31.66 30.33 32.33 31 32.33 31.83ZM4 31.83C4 32.65 3.33 33.32 2.5 33.32C1.67 33.32 1 32.65 1 31.83C1 31 1.67 30.33 2.5 30.33C3.33 30.33 4 31 4 31.83ZM259 60.16C259 60.99 258.33 61.66 257.5 61.66C256.67 61.66 256 60.99 256 60.16C256 59.33 256.67 58.66 257.5 58.66C258.33 58.66 259 59.33 259 60.16ZM230.67 60.16C230.67 60.99 229.99 61.66 229.17 61.66C228.34 61.66 227.67 60.99 227.67 60.16C227.67 59.33 228.34 58.66 229.17 58.66C229.99 58.66 230.67 59.33 230.67 60.16ZM202.33 60.16C202.33 60.99 201.66 61.66 200.83 61.66C200 61.66 199.33 60.99 199.33 60.16C199.33 59.33 200 58.66 200.83 58.66C201.66 58.66 202.33 59.33 202.33 60.16ZM174 60.16C174 60.99 173.33 61.66 172.5 61.66C171.67 61.66 171 60.99 171 60.16C171 59.33 171.67 58.66 172.5 58.66C173.33 58.66 174 59.33 174 60.16ZM145.67 60.16C145.67 60.99 145 61.66 144.17 61.66C143.34 61.66 142.67 60.99 142.67 60.16C142.67 59.33 143.34 58.66 144.17 58.66C145 58.66 145.67 59.33 145.67 60.16ZM117.33 60.16C117.33 60.99 116.66 61.66 115.83 61.66C115 61.66 114.33 60.99 114.33 60.16C114.33 59.33 115 58.66 115.83 58.66C116.66 58.66 117.33 59.33 117.33 60.16ZM89 60.16C89 60.99 88.33 61.66 87.5 61.66C86.67 61.66 86 60.99 86 60.16C86 59.33 86.67 58.66 87.5 58.66C88.33 58.66 89 59.33 89 60.16ZM60.67 60.16C60.67 60.99 60 61.66 59.17 61.66C58.34 61.66 57.67 60.99 57.67 60.16C57.67 59.33 58.34 58.66 59.17 58.66C60 58.66 60.67 59.33 60.67 60.16ZM32.33 60.16C32.33 60.99 31.66 61.66 30.83 61.66C30.01 61.66 29.33 60.99 29.33 60.16C29.33 59.33 30.01 58.66 30.83 58.66C31.66 58.66 32.33 59.33 32.33 60.16ZM4 60.16C4 60.99 3.33 61.66 2.5 61.66C1.67 61.66 1 60.99 1 60.16C1 59.33 1.67 58.66 2.5 58.66C3.33 58.66 4 59.33 4 60.16ZM259 88.49C259 89.32 258.33 89.99 257.5 89.99C256.67 89.99 256 89.32 256 88.49C256 87.66 256.67 86.99 257.5 86.99C258.33 86.99 259 87.66 259 88.49ZM230.67 88.49C230.67 89.32 229.99 89.99 229.17 89.99C228.34 89.99 227.67 89.32 227.67 88.49C227.67 87.66 228.34 86.99 229.17 86.99C229.99 86.99 230.67 87.66 230.67 88.49ZM202.33 88.49C202.33 89.32 201.66 89.99 200.83 89.99C200 89.99 199.33 89.32 199.33 88.49C199.33 87.66 200 86.99 200.83 86.99C201.66 86.99 202.33 87.66 202.33 88.49ZM174 88.49C174 89.32 173.33 89.99 172.5 89.99C171.67 89.99 171 89.32 171 88.49C171 87.66 171.67 86.99 172.5 86.99C173.33 86.99 174 87.66 174 88.49ZM145.67 88.49C145.67 89.32 145 89.99 144.17 89.99C143.34 89.99 142.67 89.32 142.67 88.49C142.67 87.66 143.34 86.99 144.17 86.99C145 86.99 145.67 87.66 145.67 88.49ZM117.33 88.49C117.33 89.32 116.66 89.99 115.83 89.99C115 89.99 114.33 89.32 114.33 88.49C114.33 87.66 115 86.99 115.83 86.99C116.66 86.99 117.33 87.66 117.33 88.49ZM89 88.49C89 89.32 88.33 89.99 87.5 89.99C86.67 89.99 86 89.32 86 88.49C86 87.66 86.67 86.99 87.5 86.99C88.33 86.99 89 87.66 89 88.49ZM60.67 88.49C60.67 89.32 60 89.99 59.17 89.99C58.34 89.99 57.67 89.32 57.67 88.49C57.67 87.66 58.34 86.99 59.17 86.99C60 86.99 60.67 87.66 60.67 88.49ZM32.33 88.49C32.33 89.32 31.66 89.99 30.83 89.99C30.01 89.99 29.33 89.32 29.33 88.49C29.33 87.66 30.01 86.99 30.83 86.99C31.66 86.99 32.33 87.66 32.33 88.49ZM4 88.49C4 89.32 3.33 89.99 2.5 89.99C1.67 89.99 1 89.32 1 88.49C1 87.66 1.67 86.99 2.5 86.99C3.33 86.99 4 87.66 4 88.49ZM259 116.83C259 117.65 258.33 118.32 257.5 118.32C256.67 118.32 256 117.65 256 116.83C256 116 256.67 115.33 257.5 115.33C258.33 115.33 259 116 259 116.83ZM230.67 116.83C230.67 117.65 229.99 118.32 229.17 118.32C228.34 118.32 227.67 117.65 227.67 116.83C227.67 116 228.34 115.33 229.17 115.33C229.99 115.33 230.67 116 230.67 116.83ZM202.33 116.83C202.33 117.65 201.66 118.32 200.83 118.32C200 118.32 199.33 117.65 199.33 116.83C199.33 116 200 115.33 200.83 115.33C201.66 115.33 202.33 116 202.33 116.83ZM174 116.83C174 117.65 173.33 118.32 172.5 118.32C171.67 118.32 171 117.65 171 116.83C171 116 171.67 115.33 172.5 115.33C173.33 115.33 174 116 174 116.83ZM145.67 116.83C145.67 117.65 145 118.32 144.17 118.32C143.34 118.32 142.67 117.65 142.67 116.83C142.67 116 143.34 115.33 144.17 115.33C145 115.33 145.67 116 145.67 116.83ZM117.33 116.83C117.33 117.65 116.66 118.32 115.83 118.32C115 118.32 114.33 117.65 114.33 116.83C114.33 116 115 115.33 115.83 115.33C116.66 115.33 117.33 116 117.33 116.83ZM89 116.83C89 117.65 88.33 118.32 87.5 118.32C86.67 118.32 86 117.65 86 116.83C86 116 86.67 115.33 87.5 115.33C88.33 115.33 89 116 89 116.83ZM60.67 116.83C60.67 117.65 60 118.32 59.17 118.32C58.34 118.32 57.67 117.65 57.67 116.83C57.67 116 58.34 115.33 59.17 115.33C60 115.33 60.67 116 60.67 116.83ZM32.33 116.83C32.33 117.65 31.66 118.32 30.83 118.32C30.01 118.32 29.33 117.65 29.33 116.83C29.33 116 30.01 115.33 30.83 115.33C31.66 115.33 32.33 116 32.33 116.83ZM4 116.83C4 117.65 3.33 118.32 2.5 118.32C1.67 118.32 1 117.65 1 116.83C1 116 1.67 115.33 2.5 115.33C3.33 115.33 4 116 4 116.83ZM259 145.16C259 145.99 258.33 146.66 257.5 146.66C256.67 146.66 256 145.99 256 145.16C256 144.33 256.67 143.66 257.5 143.66C258.33 143.66 259 144.33 259 145.16ZM230.67 145.16C230.67 145.99 229.99 146.66 229.17 146.66C228.34 146.66 227.67 145.99 227.67 145.16C227.67 144.33 228.34 143.66 229.17 143.66C229.99 143.66 230.67 144.33 230.67 145.16ZM202.33 145.16C202.33 145.99 201.66 146.66 200.83 146.66C200 146.66 199.33 145.99 199.33 145.16C199.33 144.33 200 143.66 200.83 143.66C201.66 143.66 202.33 144.33 202.33 145.16ZM174 145.16C174 145.99 173.33 146.66 172.5 146.66C171.67 146.66 171 145.99 171 145.16C171 144.33 171.67 143.66 172.5 143.66C173.33 143.66 174 144.33 174 145.16ZM145.67 145.16C145.67 145.99 145 146.66 144.17 146.66C143.34 146.66 142.67 145.99 142.67 145.16C142.67 144.33 143.34 143.66 144.17 143.66C145 143.66 145.67 144.33 145.67 145.16ZM117.33 145.16C117.33 145.99 116.66 146.66 115.83 146.66C115 146.66 114.33 145.99 114.33 145.16C114.33 144.33 115 143.66 115.83 143.66C116.66 143.66 117.33 144.33 117.33 145.16ZM89 145.16C89 145.99 88.33 146.66 87.5 146.66C86.67 146.66 86 145.99 86 145.16C86 144.33 86.67 143.66 87.5 143.66C88.33 143.66 89 144.33 89 145.16ZM60.67 145.16C60.67 145.99 60 146.66 59.17 146.66C58.34 146.66 57.67 145.99 57.67 145.16C57.67 144.33 58.34 143.66 59.17 143.66C60 143.66 60.67 144.33 60.67 145.16ZM32.33 145.16C32.33 145.99 31.66 146.66 30.83 146.66C30.01 146.66 29.33 145.99 29.33 145.16C29.33 144.33 30.01 143.66 30.83 143.66C31.66 143.66 32.33 144.33 32.33 145.16ZM4 145.16C4 145.99 3.33 146.66 2.5 146.66C1.67 146.66 1 145.99 1 145.16C1 144.33 1.67 143.66 2.5 143.66C3.33 143.66 4 144.33 4 145.16ZM259 173.49C259 174.32 258.33 174.99 257.5 174.99C256.67 174.99 256 174.32 256 173.49C256 172.67 256.67 172 257.5 172C258.33 172 259 172.67 259 173.49ZM230.67 173.49C230.67 174.32 229.99 174.99 229.17 174.99C228.34 174.99 227.67 174.32 227.67 173.49C227.67 172.67 228.34 172 229.17 172C229.99 172 230.67 172.67 230.67 173.49ZM202.33 173.49C202.33 174.32 201.66 174.99 200.83 174.99C200 174.99 199.33 174.32 199.33 173.49C199.33 172.67 200 172 200.83 172C201.66 172 202.33 172.67 202.33 173.49ZM174 173.49C174 174.32 173.33 174.99 172.5 174.99C171.67 174.99 171 174.32 171 173.49C171 172.67 171.67 172 172.5 172C173.33 172 174 172.67 174 173.49ZM145.67 173.49C145.67 174.32 145 174.99 144.17 174.99C143.34 174.99 142.67 174.32 142.67 173.49C142.67 172.67 143.34 172 144.17 172C145 172 145.67 172.67 145.67 173.49ZM117.33 173.49C117.33 174.32 116.66 174.99 115.83 174.99C115 174.99 114.33 174.32 114.33 173.49C114.33 172.67 115 172 115.83 172C116.66 172 117.33 172.67 117.33 173.49ZM89 173.49C89 174.32 88.33 174.99 87.5 174.99C86.67 174.99 86 174.32 86 173.49C86 172.67 86.67 172 87.5 172C88.33 172 89 172.67 89 173.49ZM60.67 173.49C60.67 174.32 60 174.99 59.17 174.99C58.34 174.99 57.67 174.32 57.67 173.49C57.67 172.67 58.34 172 59.17 172C60 172 60.67 172.67 60.67 173.49ZM32.33 173.49C32.33 174.32 31.66 174.99 30.83 174.99C30.01 174.99 29.33 174.32 29.33 173.49C29.33 172.67 30.01 172 30.83 172C31.66 172 32.33 172.67 32.33 173.49ZM4 173.49C4 174.32 3.33 174.99 2.5 174.99C1.67 174.99 1 174.32 1 173.49C1 172.67 1.67 172 2.5 172C3.33 172 4 172.67 4 173.49ZM259 201.83C259 202.66 258.33 203.33 257.5 203.33C256.67 203.33 256 202.66 256 201.83C256 201 256.67 200.33 257.5 200.33C258.33 200.33 259 201 259 201.83ZM230.67 201.83C230.67 202.66 229.99 203.33 229.17 203.33C228.34 203.33 227.67 202.66 227.67 201.83C227.67 201 228.34 200.33 229.17 200.33C229.99 200.33 230.67 201 230.67 201.83ZM202.33 201.83C202.33 202.66 201.66 203.33 200.83 203.33C200 203.33 199.33 202.66 199.33 201.83C199.33 201 200 200.33 200.83 200.33C201.66 200.33 202.33 201 202.33 201.83ZM174 201.83C174 202.66 173.33 203.33 172.5 203.33C171.67 203.33 171 202.66 171 201.83C171 201 171.67 200.33 172.5 200.33C173.33 200.33 174 201 174 201.83ZM145.67 201.83C145.67 202.66 145 203.33 144.17 203.33C143.34 203.33 142.67 202.66 142.67 201.83C142.67 201 143.34 200.33 144.17 200.33C145 200.33 145.67 201 145.67 201.83ZM117.33 201.83C117.33 202.66 116.66 203.33 115.83 203.33C115 203.33 114.33 202.66 114.33 201.83C114.33 201 115 200.33 115.83 200.33C116.66 200.33 117.33 201 117.33 201.83ZM89 201.83C89 202.66 88.33 203.33 87.5 203.33C86.67 203.33 86 202.66 86 201.83C86 201 86.67 200.33 87.5 200.33C88.33 200.33 89 201 89 201.83ZM60.67 201.83C60.67 202.66 60 203.33 59.17 203.33C58.34 203.33 57.67 202.66 57.67 201.83C57.67 201 58.34 200.33 59.17 200.33C60 200.33 60.67 201 60.67 201.83ZM32.33 201.83C32.33 202.66 31.66 203.33 30.83 203.33C30.01 203.33 29.33 202.66 29.33 201.83C29.33 201 30.01 200.33 30.83 200.33C31.66 200.33 32.33 201 32.33 201.83ZM4 201.83C4 202.66 3.33 203.33 2.5 203.33C1.67 203.33 1 202.66 1 201.83C1 201 1.67 200.33 2.5 200.33C3.33 200.33 4 201 4 201.83ZM259 230.16C259 230.99 258.33 231.66 257.5 231.66C256.67 231.66 256 230.99 256 230.16C256 229.34 256.67 228.67 257.5 228.67C258.33 228.67 259 229.34 259 230.16ZM230.67 230.16C230.67 230.99 229.99 231.66 229.17 231.66C228.34 231.66 227.67 230.99 227.67 230.16C227.67 229.34 228.34 228.67 229.17 228.67C229.99 228.67 230.67 229.34 230.67 230.16ZM202.33 230.16C202.33 230.99 201.66 231.66 200.83 231.66C200 231.66 199.33 230.99 199.33 230.16C199.33 229.34 200 228.67 200.83 228.67C201.66 228.67 202.33 229.34 202.33 230.16ZM174 230.16C174 230.99 173.33 231.66 172.5 231.66C171.67 231.66 171 230.99 171 230.16C171 229.34 171.67 228.67 172.5 228.67C173.33 228.67 174 229.34 174 230.16ZM145.67 230.16C145.67 230.99 145 231.66 144.17 231.66C143.34 231.66 142.67 230.99 142.67 230.16C142.67 229.34 143.34 228.67 144.17 228.67C145 228.67 145.67 229.34 145.67 230.16ZM117.33 230.16C117.33 230.99 116.66 231.66 115.83 231.66C115 231.66 114.33 230.99 114.33 230.16C114.33 229.34 115 228.67 115.83 228.67C116.66 228.67 117.33 229.34 117.33 230.16ZM89 230.16C89 230.99 88.33 231.66 87.5 231.66C86.67 231.66 86 230.99 86 230.16C86 229.34 86.67 228.67 87.5 228.67C88.33 228.67 89 229.34 89 230.16ZM60.67 230.16C60.67 230.99 60 231.66 59.17 231.66C58.34 231.66 57.67 230.99 57.67 230.16C57.67 229.34 58.34 228.67 59.17 228.67C60 228.67 60.67 229.34 60.67 230.16ZM32.33 230.16C32.33 230.99 31.66 231.66 30.83 231.66C30.01 231.66 29.33 230.99 29.33 230.16C29.33 229.34 30.01 228.67 30.83 228.67C31.66 228.67 32.33 229.34 32.33 230.16ZM4 230.16C4 230.99 3.33 231.66 2.5 231.66C1.67 231.66 1 230.99 1 230.16C1 229.34 1.67 228.67 2.5 228.67C3.33 228.67 4 229.34 4 230.16ZM259 258.5C259 259.32 258.33 260 257.5 260C256.67 260 256 259.32 256 258.5C256 257.67 256.67 257 257.5 257C258.33 257 259 257.67 259 258.5ZM230.67 258.5C230.67 259.32 229.99 260 229.17 260C228.34 260 227.67 259.32 227.67 258.5C227.67 257.67 228.34 257 229.17 257C229.99 257 230.67 257.67 230.67 258.5ZM202.33 258.5C202.33 259.32 201.66 260 200.83 260C200 260 199.33 259.32 199.33 258.5C199.33 257.67 200 257 200.83 257C201.66 257 202.33 257.67 202.33 258.5ZM174 258.5C174 259.32 173.33 260 172.5 260C171.67 260 171 259.32 171 258.5C171 257.67 171.67 257 172.5 257C173.33 257 174 257.67 174 258.5ZM145.67 258.5C145.67 259.32 145 260 144.17 260C143.34 260 142.67 259.32 142.67 258.5C142.67 257.67 143.34 257 144.17 257C145 257 145.67 257.67 145.67 258.5ZM117.33 258.5C117.33 259.32 116.66 260 115.83 260C115 260 114.33 259.32 114.33 258.5C114.33 257.67 115 257 115.83 257C116.66 257 117.33 257.67 117.33 258.5ZM89 258.5C89 259.32 88.33 260 87.5 260C86.67 260 86 259.32 86 258.5C86 257.67 86.67 257 87.5 257C88.33 257 89 257.67 89 258.5ZM60.67 258.5C60.67 259.32 60 260 59.17 260C58.34 260 57.67 259.32 57.67 258.5C57.67 257.67 58.34 257 59.17 257C60 257 60.67 257.67 60.67 258.5ZM32.33 258.5C32.33 259.32 31.66 260 30.83 260C30.01 260 29.33 259.32 29.33 258.5C29.33 257.67 30.01 257 30.83 257C31.66 257 32.33 257.67 32.33 258.5ZM4 258.5C4 259.32 3.33 260 2.5 260C1.67 260 1 259.32 1 258.5C1 257.67 1.67 257 2.5 257C3.33 257 4 257.67 4 258.5Z" />
		</g>
	</g>
</svg>